<svg width="1280" height="720" viewBox="0 0 1280 720" xmlns="http://www.w3.org/2000/svg">
  <rect width="1280" height="720" fill="#f3f4f6" />
  <rect x="100" y="50" width="1080" height="620" rx="16" fill="white" />
  <rect x="140" y="90" width="200" height="40" rx="8" fill="#4f46e5" />
  <rect x="140" y="150" width="400" height="20" rx="4" fill="#e5e7eb" />
  <rect x="140" y="180" width="300" height="20" rx="4" fill="#e5e7eb" />
  <rect x="140" y="240" width="1000" height="300" rx="8" fill="#f9fafb" />
  <rect x="160" y="260" width="150" height="20" rx="4" fill="#d1d5db" />
  <rect x="160" y="290" width="200" height="20" rx="4" fill="#d1d5db" />
  <rect x="160" y="320" width="180" height="20" rx="4" fill="#d1d5db" />
  <rect x="160" y="350" width="220" height="20" rx="4" fill="#d1d5db" />
  <rect x="160" y="380" width="160" height="20" rx="4" fill="#d1d5db" />
  <rect x="160" y="410" width="190" height="20" rx="4" fill="#d1d5db" />
  <rect x="160" y="440" width="140" height="20" rx="4" fill="#d1d5db" />
  <rect x="160" y="470" width="210" height="20" rx="4" fill="#d1d5db" />
  <rect x="160" y="500" width="170" height="20" rx="4" fill="#d1d5db" />
</svg>
